<?xml version="1.0" encoding="UTF-8"?>
<svg version="1.1" xmlns="http://www.w3.org/2000/svg" width="512" height="512">
<path d="M0 0 C0.84236295 -0.00297112 1.68472589 -0.00594224 2.55261499 -0.0090034 C5.37983868 -0.01768619 8.20702001 -0.0191983 11.03425598 -0.02069092 C13.05962718 -0.02531943 15.08499751 -0.03034413 17.11036682 -0.03573608 C22.61675666 -0.04885987 28.12313431 -0.05530513 33.62953734 -0.05974674 C37.07028031 -0.06267781 40.51101995 -0.06678271 43.95176125 -0.07125092 C54.71858492 -0.08492648 65.48540097 -0.09459256 76.25223273 -0.09845281 C88.67781196 -0.10293229 101.10328113 -0.1204749 113.52882689 -0.1494534 C123.13491579 -0.17107808 132.74097375 -0.18115753 142.34708673 -0.18249393 C148.08348688 -0.18354149 153.81978356 -0.18943891 159.55615807 -0.20731354 C164.95453671 -0.22380747 170.35273427 -0.22594322 175.75112915 -0.21717453 C177.72919004 -0.21640484 179.70726072 -0.22073789 181.68529701 -0.23063278 C184.39278849 -0.24337903 187.0996412 -0.23746096 189.80712891 -0.22705078 C190.58361115 -0.23510719 191.3600934 -0.24316359 192.16010541 -0.25146413 C200.49772927 -0.17686469 207.78170673 2.08432297 213.78933716 7.99057007 C220.31580432 15.25420659 221.43866671 22.81709941 221.20930481 32.27325439 C221.1986927 33.95002762 221.1986927 33.95002762 221.18786621 35.66067505 C221.16009931 39.19630687 221.0973914 42.73029678 221.03352356 46.26544189 C221.00841794 48.6768772 220.98560877 51.08833757 220.96516418 53.49981689 C220.91033091 59.38057604 220.82688348 65.26039162 220.72102356 71.14044189 C222.4788864 71.13491114 222.4788864 71.13491114 224.27226162 71.12926865 C252.10853418 71.04258478 279.94479621 70.97665361 307.78117549 70.93618058 C311.20944865 70.93117792 314.63772153 70.92600061 318.06599426 70.92071533 C319.08972925 70.91914147 319.08972925 70.91914147 320.13414574 70.91753581 C331.17617045 70.90014388 342.21811163 70.86861292 353.26008683 70.83183071 C364.59528336 70.79438744 375.93041808 70.7724982 387.26568037 70.76408792 C393.63039915 70.75887456 399.99492862 70.74662671 406.35958672 70.71752167 C412.35216951 70.69034052 418.34448529 70.68200251 424.33712387 70.68801117 C426.53449899 70.68691216 428.73188319 70.6789746 430.92920494 70.66362 C433.93479815 70.64365026 436.93938981 70.64852858 439.94500732 70.65942383 C440.80981891 70.64777246 441.6746305 70.6361211 442.5656485 70.62411666 C450.6618614 70.70317314 457.85171886 73.43883162 463.72102356 79.14044189 C469.61148238 86.88218777 470.01435713 93.59672972 469.9884491 103.00074768 C469.99298021 104.20417208 469.99751132 105.40759649 470.00217974 106.6474883 C470.01264024 109.98009259 470.01415127 113.31248084 470.01179099 116.64508617 C470.0113824 120.24233915 470.02242595 123.83956009 470.03190613 127.4367981 C470.04850794 134.48157595 470.0540153 141.52632034 470.05513088 148.57111613 C470.05608174 154.29839915 470.06019388 160.02567114 470.06653214 165.75295067 C470.08414222 181.99648729 470.09337136 198.2399975 470.09187119 214.48354373 C470.09179127 215.3589505 470.09171136 216.23435726 470.09162903 217.1362915 C470.09154727 218.01276906 470.09146551 218.88924661 470.09138127 219.79228409 C470.09056841 233.99606002 470.10970669 248.19972989 470.13790576 262.40347514 C470.16664243 276.99330622 470.18044563 291.58308558 470.17871821 306.17294568 C470.17805458 314.36183126 470.18353484 322.55060565 470.20507431 330.73946571 C470.22329641 337.71172553 470.22762504 344.68382376 470.21405546 351.65609709 C470.20753096 355.21170976 470.20738944 358.76701252 470.22476196 362.3225956 C470.24342267 366.18160179 470.23092453 370.04015687 470.21549988 373.89918518 C470.23093057 375.57546736 470.23093057 375.57546736 470.24667299 377.28561383 C470.17506032 385.3972571 468.24314692 391.03031493 464.03352356 397.89044189 C458.17589643 403.58975478 451.40113824 406.26706137 443.32400513 406.26069641 C442.67215703 406.26155084 442.02030893 406.26240526 441.34870785 406.26328558 C439.16069219 406.26493497 436.97275289 406.25942784 434.78474426 406.25396729 C433.21781923 406.25368527 431.65089407 406.25384343 430.08396912 406.25440979 C425.82600657 406.25469721 421.56807207 406.24880941 417.31011605 406.24183583 C412.86181546 406.23559309 408.41351426 406.23499776 403.96520996 406.23381042 C395.53984503 406.23069983 387.11449305 406.22249009 378.68913382 406.21246094 C369.09795467 406.20129138 359.50677491 406.19578722 349.91559088 406.1907655 C330.18406121 406.18030727 310.4525432 406.16271307 290.72102356 406.14044189 C290.86822607 410.15491514 291.02072568 414.1691707 291.17414856 418.18341064 C291.21555969 419.31452271 291.25697083 420.44563477 291.29963684 421.61102295 C291.97819759 439.16078046 294.93693748 453.38412384 306.72102356 467.14044189 C309.82976747 469.21293784 310.52524843 469.39199198 314.05305481 469.41168213 C314.92405823 469.42186874 315.79506165 469.43205536 316.69245911 469.44255066 C317.63001038 469.4446907 318.56756165 469.44683075 319.53352356 469.44903564 C321.51529743 469.47418826 323.49706819 469.49958639 325.47883606 469.52520752 C328.60610706 469.55399967 331.73332432 469.57801555 334.860672 469.59674072 C337.87690213 469.61833947 340.89250798 469.65776713 343.90852356 469.69903564 C345.31485046 469.69920937 345.31485046 469.69920937 346.74958801 469.6993866 C347.62059143 469.71272537 348.49159485 469.72606415 349.38899231 469.73980713 C350.15493713 469.74487778 350.92088196 469.74994843 351.71003723 469.75517273 C354.25049854 470.24187987 355.12282772 471.14766955 356.72102356 473.14044189 C357.79348673 475.69785407 357.88178563 476.70762095 356.90852356 479.32794189 C355.72102356 481.14044189 355.72102356 481.14044189 353.72102356 482.14044189 C350.99449054 482.24277431 348.29324274 482.28381783 345.56625366 482.28088379 C344.71319907 482.28385491 343.86014447 482.28682603 342.98123974 482.28988719 C340.10616115 482.29859916 337.23112408 482.30008453 334.35603333 482.30157471 C332.30151785 482.30620105 330.24700323 482.31122546 328.19248962 482.31661987 C322.59961011 482.32976205 317.00674261 482.33619216 311.41385007 482.34063053 C307.92324679 482.34355782 304.43264683 482.34766193 300.94204521 482.3521347 C290.03106436 482.36581331 279.12009105 482.37547866 268.20910221 482.3793366 C255.59440192 482.38382091 242.97980979 482.40138466 230.36514241 482.43033719 C220.62670465 482.45191622 210.88829742 482.46203882 201.149836 482.46337771 C195.32752547 482.46442829 189.50531655 482.47038982 183.68303108 482.48819733 C178.20918691 482.50461318 172.73552146 482.50686522 167.26166153 482.49805832 C165.24883103 482.4972845 163.23599118 482.5016757 161.22318459 482.51151657 C158.48283258 482.52413242 155.7431236 482.5184162 153.0027771 482.50793457 C151.79811895 482.52001918 151.79811895 482.52001918 150.56912428 482.53234792 C145.23357663 482.48436498 145.23357663 482.48436498 142.73075771 480.8049736 C141.1142295 478.14015093 141.27891772 476.1720248 141.72102356 473.14044189 C143.50600047 471.03348839 144.9730001 470.22510379 147.72306824 469.91384888 C150.29411653 469.86229359 152.84964822 469.90999524 155.42024231 469.98028564 C157.37140266 469.99213193 159.32257703 470.0018289 161.27375793 470.00958252 C164.33807709 470.03628843 167.39953851 470.07770849 170.46296692 470.1572876 C182.25103388 470.82337764 182.25103388 470.82337764 193.02082825 467.02545166 C195.34115594 464.49377993 197.05660812 462.13589044 198.72102356 459.14044189 C199.21932678 458.32188721 199.71763 457.50333252 200.23103333 456.65997314 C206.43349042 445.49532851 207.21484067 433.92807074 207.40852356 421.45294189 C207.44177759 419.96137702 207.47627438 418.46983931 207.51203918 416.97833252 C207.59600272 413.36590209 207.66323926 409.7533972 207.72102356 406.14044189 C206.51065052 406.14458996 206.51065052 406.14458996 205.2758255 406.14882183 C185.62843732 406.21511739 165.9810715 406.26473987 146.33359528 406.29587841 C136.83216328 406.31133759 127.33080602 406.33240897 117.829422 406.36676025 C109.54659363 406.39669167 101.26381939 406.4160238 92.98093843 406.42270738 C88.59649738 406.4266133 84.21221118 406.43577296 79.82781982 406.45763206 C75.69759346 406.47805636 71.56758515 406.48426373 67.43731308 406.47976494 C65.92485747 406.48058749 64.41239426 406.48651773 62.89998245 406.49805832 C51.90976771 406.57777771 43.82961226 405.87429955 35.48274231 398.10137939 C28.946006 390.82545561 28.56829066 382.41654781 28.60076904 373.06686401 C28.59991462 372.16335595 28.59906019 371.25984788 28.59817988 370.32896078 C28.59653528 367.30727924 28.60202976 364.28565346 28.60749817 361.26397705 C28.60778029 359.09563193 28.60762183 356.92728671 28.60705566 354.75894165 C28.60676865 348.87517871 28.61264995 342.99143614 28.61962962 337.10767794 C28.62587907 330.95774215 28.62646822 324.8078059 28.62765503 318.65786743 C28.63076364 307.01329269 28.63897072 295.36872734 28.64900452 283.72415674 C28.66018022 270.46671364 28.66567978 257.2092701 28.67069995 243.95182347 C28.68115371 216.68135774 28.69874408 189.41090034 28.72102356 162.14044189 C27.61702209 162.16138916 26.51302063 162.18233643 25.37556458 162.20391846 C21.24386278 162.27681796 17.11221678 162.32242149 12.98005676 162.36016846 C11.1983837 162.38017094 9.41677533 162.40738212 7.6353302 162.44219971 C-4.67721261 162.67665866 -14.23509757 162.55414699 -23.77507019 153.85528564 C-28.09799772 148.92602542 -30.39423478 142.78487958 -30.42614746 136.28457642 C-30.43330276 135.28376038 -30.44045807 134.28294434 -30.4478302 133.25180054 C-30.4505191 132.15463715 -30.45320801 131.05747375 -30.45597839 129.92706299 C-30.46254959 128.77065308 -30.46912079 127.61424316 -30.47589111 126.42279053 C-30.49564018 122.58648618 -30.50729126 118.75022104 -30.51725769 114.91387939 C-30.52133322 113.60395649 -30.52540874 112.29403358 -30.52960777 110.94441605 C-30.54865834 104.72459147 -30.56288716 98.50477872 -30.57121974 92.28493059 C-30.58097877 85.11952673 -30.6072635 77.9544329 -30.64772063 70.7891382 C-30.67795662 65.24248356 -30.69269584 59.69591737 -30.69600075 54.14918196 C-30.69834363 50.84057154 -30.70919813 47.53236657 -30.73246193 44.22382736 C-30.75684563 40.52569792 -30.7558889 36.82837345 -30.74894714 33.13018799 C-30.7617572 32.04516998 -30.77456726 30.96015198 -30.7877655 29.84225464 C-30.73098116 21.51953916 -28.71555522 15.76050179 -24.09147644 8.89044189 C-16.93234102 1.89039837 -9.75359575 -0.01072998 0 0 Z " fill="#3F5295" transform="translate(36.27897644042969,14.85955810546875)"/>
<path d="M0 0 C70.29 0 140.58 0 213 0 C213 79.86 213 159.72 213 242 C91.56 242 -29.88 242 -155 242 C-155 180.29 -155 118.58 -155 55 C-133.88 55 -112.76 55 -91 55 C-88.710625 60.8575 -86.42125 66.715 -84.0625 72.75 C-83.34070557 74.59303711 -82.61891113 76.43607422 -81.87524414 78.33496094 C-81.30335587 79.80135731 -80.73164772 81.26782394 -80.16015625 82.734375 C-79.86298706 83.49121582 -79.56581787 84.24805664 -79.25964355 85.02783203 C-78.97552612 85.75824707 -78.69140869 86.48866211 -78.39868164 87.24121094 C-78.15219376 87.87186462 -77.90570587 88.50251831 -77.65174866 89.15228271 C-77 91 -77 91 -76.6000824 93.17242432 C-76.40205521 93.77552429 -76.20402802 94.37862427 -76 95 C-72.37296974 96.20901009 -68.75982637 96.78660475 -65 96 C-60.78172842 92.66649985 -59.38793682 88.652234 -57.58203125 83.76953125 C-57.27931808 82.9785051 -56.97660492 82.18747894 -56.66471863 81.3724823 C-55.70383148 78.85620887 -54.75764258 76.33472448 -53.8125 73.8125 C-52.85387029 71.28070974 -51.89225121 68.75009287 -50.92814636 66.22038269 C-50.33002674 64.648188 -49.73561527 63.07457678 -49.1452179 61.49946594 C-47.10959212 56.10959212 -47.10959212 56.10959212 -46 55 C-44.41021645 54.89085853 -42.81605696 54.84416316 -41.22265625 54.82421875 C-40.23330078 54.80037109 -39.24394531 54.77652344 -38.22460938 54.75195312 C-36.1518877 54.70970494 -34.07891636 54.67807268 -32.00585938 54.65820312 C-23.10318016 54.41170267 -15.71246716 52.4282428 -8.625 46.875 C3.64977051 33.75369359 -0.53351881 17.60612057 0 0 Z " fill="#E6EFF6" transform="translate(257,122)"/>
<path d="M0 0 C0.84236295 -0.00297112 1.68472589 -0.00594224 2.55261499 -0.0090034 C5.37983868 -0.01768619 8.20702001 -0.0191983 11.03425598 -0.02069092 C13.05962718 -0.02531943 15.08499751 -0.03034413 17.11036682 -0.03573608 C22.61675666 -0.04885987 28.12313431 -0.05530513 33.62953734 -0.05974674 C37.07028031 -0.06267781 40.51101995 -0.06678271 43.95176125 -0.07125092 C54.71858492 -0.08492648 65.48540097 -0.09459256 76.25223273 -0.09845281 C88.67781196 -0.10293229 101.10328113 -0.1204749 113.52882689 -0.1494534 C123.13491579 -0.17107808 132.74097375 -0.18115753 142.34708673 -0.18249393 C148.08348688 -0.18354149 153.81978356 -0.18943891 159.55615807 -0.20731354 C164.95453671 -0.22380747 170.35273427 -0.22594322 175.75112915 -0.21717453 C177.72919004 -0.21640484 179.70726072 -0.22073789 181.68529701 -0.23063278 C184.39278849 -0.24337903 187.0996412 -0.23746096 189.80712891 -0.22705078 C190.58361115 -0.23510719 191.3600934 -0.24316359 192.16010541 -0.25146413 C200.49869305 -0.17685607 207.78017111 2.0853427 213.78989506 7.99002075 C220.24809709 15.1815951 221.45441914 22.76775157 221.35212708 32.13262939 C221.36286003 33.8663681 221.36286003 33.8663681 221.37380981 35.63513184 C221.39062099 39.42897926 221.3713366 43.22163241 221.34992981 47.01544189 C221.3507592 49.66763876 221.35316658 52.31979515 221.35723877 54.97198486 C221.36174523 60.51981157 221.34598059 66.06729953 221.31794739 71.61505127 C221.28590167 78.00566888 221.28591575 84.39567596 221.30316216 90.7863369 C221.31909166 96.96403949 221.3122527 103.1415208 221.29522514 109.31921387 C221.29005881 111.93456526 221.29050622 114.54993421 221.2967701 117.1652832 C221.30224812 120.82665236 221.28176194 124.48700159 221.25447083 128.14825439 C221.26425964 129.75389252 221.26425964 129.75389252 221.27424622 131.39196777 C221.16526628 140.03359814 219.39587003 147.44874347 213.53352356 154.01544189 C207.74365198 159.31761371 200.16936682 162.15625182 192.39680481 162.45684814 C190.85476379 162.51968994 190.85476379 162.51968994 189.28157043 162.58380127 C188.20971497 162.62311768 187.1378595 162.66243408 186.03352356 162.70294189 C184.95006653 162.74612549 183.8666095 162.78930908 182.75032043 162.83380127 C180.07401565 162.93991027 177.3976183 163.0419655 174.72102356 163.14044189 C174.32310608 164.20480469 173.9251886 165.26916748 173.51521301 166.36578369 C172.02856584 170.33131918 170.52407642 174.28988631 169.01423645 178.24664307 C168.36452648 179.95672112 167.71960284 181.66862593 167.07966614 183.38238525 C166.15639604 185.85233006 165.21583685 188.31508838 164.27180481 190.77716064 C163.99137833 191.53881027 163.71095184 192.3004599 163.42202759 193.08518982 C161.60666439 197.75711546 159.65459089 200.84785311 155.72102356 204.14044189 C152.69454021 205.04782331 150.97134286 204.60477322 147.72102356 204.14044189 C143.16567336 200.83714701 141.75687002 195.9027968 139.84602356 190.82794189 C139.15098764 189.0309599 138.45567225 187.23408597 137.76008606 185.43731689 C137.41880676 184.54593018 137.07752747 183.65454346 136.72590637 182.73614502 C135.79969695 180.34366237 134.84460461 177.96645143 133.86946106 175.59356689 C133.58957336 174.9107666 133.30968567 174.22796631 133.02131653 173.5244751 C132.26567206 171.68653935 131.50900487 169.84902418 130.75227356 168.01153564 C129.72102356 165.14044189 129.72102356 165.14044189 129.72102356 162.14044189 C129.01295091 162.14412907 128.30487825 162.14781624 127.57534885 162.15161514 C110.32270046 162.24006704 93.07010989 162.30620047 75.81728458 162.34769058 C67.47383529 162.36828974 59.13053762 162.3963595 50.78718567 162.44219971 C43.51258964 162.48214878 36.23810346 162.50789394 28.96340078 162.51679587 C25.11373791 162.52199703 21.26438923 162.53416581 17.41482735 162.56336212 C13.78603317 162.59065919 10.15768044 162.59885839 6.52879333 162.59287262 C4.57311348 162.59448524 2.6174809 162.61593293 0.66192627 162.63812256 C-9.12705759 162.59258193 -16.45768343 160.52751998 -23.77507019 153.85528564 C-28.09799772 148.92602542 -30.39423478 142.78487958 -30.42614746 136.28457642 C-30.43330276 135.28376038 -30.44045807 134.28294434 -30.4478302 133.25180054 C-30.4505191 132.15463715 -30.45320801 131.05747375 -30.45597839 129.92706299 C-30.46254959 128.77065308 -30.46912079 127.61424316 -30.47589111 126.42279053 C-30.49564018 122.58648618 -30.50729126 118.75022104 -30.51725769 114.91387939 C-30.52133322 113.60395649 -30.52540874 112.29403358 -30.52960777 110.94441605 C-30.54865834 104.72459147 -30.56288716 98.50477872 -30.57121974 92.28493059 C-30.58097877 85.11952673 -30.6072635 77.9544329 -30.64772063 70.7891382 C-30.67795662 65.24248356 -30.69269584 59.69591737 -30.69600075 54.14918196 C-30.69834363 50.84057154 -30.70919813 47.53236657 -30.73246193 44.22382736 C-30.75684563 40.52569792 -30.7558889 36.82837345 -30.74894714 33.13018799 C-30.7617572 32.04516998 -30.77456726 30.96015198 -30.7877655 29.84225464 C-30.73098116 21.51953916 -28.71555522 15.76050179 -24.09147644 8.89044189 C-16.93234102 1.89039837 -9.75359575 -0.01072998 0 0 Z " fill="#0E9C4A" transform="translate(36.27897644042969,14.85955810546875)"/>
<path d="M0 0 C1.57020136 -0.02896561 3.14056085 -0.04942072 4.7109375 -0.06640625 C5.58540527 -0.07873291 6.45987305 -0.09105957 7.36083984 -0.10375977 C14.4483198 0.17488769 20.03965276 2.93203606 25.0869379 7.85372925 C31.51671561 15.06731832 32.73344496 22.62278895 32.63110352 31.9921875 C32.64183647 33.72592621 32.64183647 33.72592621 32.65278625 35.49468994 C32.66959743 39.28853737 32.65031304 43.08119052 32.62890625 46.875 C32.62973564 49.52719687 32.63214302 52.17935326 32.63621521 54.83154297 C32.64072167 60.37936967 32.62495703 65.92685764 32.59692383 71.47460938 C32.56487811 77.86522699 32.56489219 84.25523406 32.5821386 90.645895 C32.5980681 96.8235976 32.59122914 103.0010789 32.57420158 109.17877197 C32.56903525 111.79412337 32.56948266 114.40949231 32.57574654 117.02484131 C32.58122456 120.68621046 32.56073839 124.3465597 32.53344727 128.0078125 C32.54323608 129.61345062 32.54323608 129.61345062 32.55322266 131.25152588 C32.44424272 139.89315624 30.67484647 147.30830158 24.8125 153.875 C19.02262842 159.17717182 11.44834326 162.01580993 3.67578125 162.31640625 C2.13374023 162.37924805 2.13374023 162.37924805 0.56054688 162.44335938 C-0.51130859 162.48267578 -1.58316406 162.52199219 -2.6875 162.5625 C-3.77095703 162.60568359 -4.85441406 162.64886719 -5.97070312 162.69335938 C-8.64700791 162.79946838 -11.32340526 162.90152361 -14 163 C-14.39791748 164.06436279 -14.79583496 165.12872559 -15.20581055 166.2253418 C-16.69245772 170.19087728 -18.19694714 174.14944441 -19.70678711 178.10620117 C-20.35649708 179.81627923 -21.00142072 181.52818403 -21.64135742 183.24194336 C-22.56462752 185.71188816 -23.50518671 188.17464649 -24.44921875 190.63671875 C-24.72964523 191.39836838 -25.01007172 192.16001801 -25.29899597 192.94474792 C-27.11435917 197.61667356 -29.06643267 200.70741121 -33 204 C-36.02648335 204.90738141 -37.7496807 204.46433133 -41 204 C-45.5553502 200.69670512 -46.96415354 195.7623549 -48.875 190.6875 C-49.57003592 188.890518 -50.26535131 187.09364407 -50.9609375 185.296875 C-51.3022168 184.40548828 -51.64349609 183.51410156 -51.99511719 182.59570312 C-52.92132661 180.20322047 -53.87641894 177.82600953 -54.8515625 175.453125 C-55.1314502 174.77032471 -55.41133789 174.08752441 -55.69970703 173.3840332 C-56.4553515 171.54609746 -57.21201869 169.70858228 -57.96875 167.87109375 C-59 165 -59 165 -59 162 C-59.70807265 162.00368717 -60.41614531 162.00737434 -61.14567471 162.01117325 C-78.3983231 162.09962515 -95.65091367 162.16575857 -112.90373898 162.20724869 C-121.24718827 162.22784785 -129.59048594 162.25591761 -137.93383789 162.30175781 C-145.20843392 162.34170689 -152.4829201 162.36745204 -159.75762278 162.37635398 C-163.60728565 162.38155514 -167.45663433 162.39372391 -171.30619621 162.42292023 C-174.93499039 162.4502173 -178.56334312 162.45841649 -182.19223022 162.45243073 C-184.14791008 162.45404335 -186.10354266 162.47549103 -188.05909729 162.49768066 C-197.84808115 162.45214003 -205.17870699 160.38707808 -212.49609375 153.71484375 C-217.72117169 147.75689774 -219.15612427 141.02569942 -219.0625 133.3125 C-219.05798828 132.61060547 -219.05347656 131.90871094 -219.04882812 131.18554688 C-219.03706927 129.45699462 -219.01913454 127.72848635 -219 126 C-217.73038925 125.99191315 -216.4607785 125.98382629 -215.1526947 125.97549438 C-203.13419077 125.89770127 -191.11579545 125.80988084 -179.09743404 125.71247292 C-172.92004031 125.66272165 -166.74266195 125.61639119 -160.56518555 125.578125 C-154.59340183 125.541003 -148.62175376 125.49457326 -142.65008736 125.44193649 C-140.38219161 125.42353451 -138.11426695 125.40837538 -135.84632683 125.39665604 C-101.82948959 125.21473442 -70.03950433 118.15974606 -44 95 C-42.75863281 93.97326172 -42.75863281 93.97326172 -41.4921875 92.92578125 C-23.92999839 78.03370553 -12.90610794 57.66076809 -6 36 C-5.67386719 35.00226562 -5.34773437 34.00453125 -5.01171875 32.9765625 C-1.96662794 22.32655258 -1.24210918 10.97529265 0 0 Z " fill="#0D8D43" transform="translate(225,15)"/>
<path d="M0 0 C12.21 0 24.42 0 37 0 C37 61.71 37 123.42 37 187 C101.02 187 165.04 187 231 187 C227.40754672 190.59245328 222.24747849 191.82846133 217.5625 193.625 C215.83338379 194.28834351 215.83338379 194.28834351 214.06933594 194.96508789 C192.66128628 203.01987381 171.0254796 208.68982104 148.4375 212.125 C147.31279297 212.29612305 146.18808594 212.46724609 145.02929688 212.64355469 C143.92521484 212.80500977 142.82113281 212.96646484 141.68359375 213.1328125 C140.22264282 213.34768311 140.22264282 213.34768311 138.73217773 213.56689453 C128.92959527 214.70444809 119.18829959 215.14590136 109.32495117 215.11352539 C108.11409757 215.11364593 106.90324396 215.11376646 105.65569782 215.11389065 C101.78476861 215.11315172 97.9138892 215.10557056 94.04296875 215.09765625 C91.63366723 215.09618366 89.22436538 215.09516491 86.81506348 215.09460449 C77.93920407 215.08938829 69.06335153 215.07542705 60.1875 215.0625 C40.325625 215.041875 20.46375 215.02125 0 215 C0 144.05 0 73.1 0 0 Z " fill="#475CA8" transform="translate(65,177)"/>
<path d="M0 0 C27.39 0 54.78 0 83 0 C83.33 8.25 83.66 16.5 84 25 C85.44210349 39.06050905 89.72290364 50.17025153 99 61 C102.10874391 63.07249594 102.80422487 63.25155009 106.33203125 63.27124023 C107.20303467 63.28142685 108.07403809 63.29161346 108.97143555 63.30210876 C109.90898682 63.30424881 110.84653809 63.30638885 111.8125 63.30859375 C113.79427387 63.33374637 115.77604463 63.3591445 117.7578125 63.38476562 C120.8850835 63.41355778 124.01230076 63.43757365 127.13964844 63.45629883 C130.15587857 63.47789758 133.17148442 63.51732524 136.1875 63.55859375 C137.5938269 63.55876747 137.5938269 63.55876747 139.02856445 63.5589447 C139.89956787 63.57228348 140.77057129 63.58562225 141.66796875 63.59936523 C142.43391357 63.60443588 143.1998584 63.60950653 143.98901367 63.61473083 C146.52947498 64.10143798 147.40180416 65.00722766 149 67 C150.07246317 69.55741218 150.16076207 70.56717905 149.1875 73.1875 C148 75 148 75 146 76 C143.27346698 76.10233241 140.57221918 76.14337593 137.8452301 76.14044189 C136.99217551 76.14341302 136.13912091 76.14638414 135.26021618 76.1494453 C132.38513759 76.15815727 129.51010052 76.15964264 126.63500977 76.16113281 C124.58049429 76.16575915 122.52597967 76.17078356 120.47146606 76.17617798 C114.87858655 76.18932016 109.28571905 76.19575027 103.69282651 76.20018864 C100.20222323 76.20311593 96.71162327 76.20722003 93.22102165 76.21169281 C82.3100408 76.22537141 71.39906749 76.23503677 60.48807865 76.2388947 C47.87337836 76.24337902 35.25878623 76.26094276 22.64411885 76.2898953 C12.9056811 76.31147433 3.16727386 76.32159693 -6.57118756 76.32293582 C-12.39349809 76.3239864 -18.21570701 76.32994793 -24.03799248 76.34775543 C-29.51183665 76.36417129 -34.9855021 76.36642333 -40.45936203 76.35761642 C-42.47219253 76.35684261 -44.48503238 76.36123381 -46.49783897 76.37107468 C-49.23819098 76.38369052 -51.97789996 76.37797431 -54.71824646 76.36749268 C-55.9229046 76.37957728 -55.9229046 76.37957728 -57.15189928 76.39190602 C-62.48744693 76.34392309 -62.48744693 76.34392309 -64.99026585 74.66453171 C-66.60679406 71.99970904 -66.44210584 70.03158291 -66 67 C-64.21502309 64.8930465 -62.74802346 64.08466189 -59.99795532 63.77340698 C-57.42690703 63.7218517 -54.87137534 63.76955335 -52.30078125 63.83984375 C-50.3496209 63.85169003 -48.39844653 63.86138701 -46.44726562 63.86914062 C-43.38294647 63.89584653 -40.32148505 63.93726659 -37.25805664 64.0168457 C-25.46998968 64.68293575 -25.46998968 64.68293575 -14.70019531 60.88500977 C-12.37986762 58.35333803 -10.66441544 55.99544855 -9 53 C-8.50169678 52.18144531 -8.00339355 51.36289062 -7.48999023 50.51953125 C1.41281599 34.49416157 -0.57450348 18.38411144 0 0 Z " fill="#464646" transform="translate(244,421)"/>
<path d="M0 0 C72.6 0 145.2 0 220 0 C220 10.47226645 219.9396603 20.2206018 218.6875 30.5 C218.55432373 31.64766846 218.42114746 32.79533691 218.28393555 33.9777832 C217.19700386 43.05210271 215.78238874 52.03749208 214 61 C213.67 61 213.34 61 213 61 C213 52.75 213 44.5 213 36 C142.71 36 72.42 36 0 36 C0 24.12 0 12.24 0 0 Z " fill="#465CA8" transform="translate(257,86)"/>
<path d="M0 0 C1.28519531 0.00064453 2.57039063 0.00128906 3.89453125 0.00195312 C4.56307129 0.01025146 5.23161133 0.0185498 5.92041016 0.02709961 C7.96166452 0.05069933 10.00161255 0.04765778 12.04296875 0.04101562 C22.0683095 0.09632091 22.0683095 0.09632091 25.46875 2.36328125 C25.84348011 4.71213531 25.84348011 4.71213531 25.8429718 7.7154541 C25.85349327 9.41910881 25.85349327 9.41910881 25.86422729 11.15718079 C25.85658356 12.40919785 25.84893982 13.6612149 25.84106445 14.95117188 C25.84471512 16.26498337 25.84836578 17.57879486 25.85212708 18.93241882 C25.8615523 22.54192086 25.85209719 26.15115251 25.83879495 29.76063347 C25.8275005 33.53268361 25.8315864 37.30472004 25.83354187 41.07678223 C25.83442549 47.41207308 25.82333044 53.74725706 25.80493164 60.08251953 C25.78376294 67.41365406 25.78025372 74.74463198 25.7864936 82.07579088 C25.79218255 89.11949265 25.78654715 96.16313909 25.77532005 103.20683289 C25.77066783 106.20839966 25.7698029 109.20993267 25.7719059 112.21150208 C25.77413423 116.39954886 25.75970024 120.587375 25.7434082 124.77539062 C25.74588562 126.02740768 25.74836304 127.27942474 25.75091553 128.56938171 C25.74028831 130.27303642 25.74028831 130.27303642 25.72944641 132.0111084 C25.72739354 133.0022036 25.72534067 133.9932988 25.72322559 135.01442719 C25.46875 137.36328125 25.46875 137.36328125 23.46875 139.36328125 C19.05031451 139.76234515 14.61755161 139.69231482 10.18310547 139.67895508 C7.97703766 139.67579313 5.77230831 139.69925701 3.56640625 139.72460938 C2.16927253 139.72688213 0.77213519 139.72758597 -0.625 139.7265625 C-1.90052734 139.72954346 -3.17605469 139.73252441 -4.49023438 139.7355957 C-5.49376953 139.61273193 -6.49730469 139.48986816 -7.53125 139.36328125 C-9.7716936 136.00261584 -9.78366745 134.90203672 -9.79194641 130.97351074 C-9.79903122 129.85463974 -9.80611603 128.73576874 -9.81341553 127.58299255 C-9.81093811 126.35484329 -9.80846069 125.12669403 -9.8059082 123.86132812 C-9.81101913 122.56848404 -9.81613007 121.27563995 -9.82139587 119.94361877 C-9.83479774 116.39615877 -9.83536333 112.84880523 -9.83283257 109.30132484 C-9.83176384 106.34142239 -9.83664364 103.38154156 -9.841438 100.42164373 C-9.85253691 93.44042185 -9.85296819 86.45925378 -9.84692383 79.47802734 C-9.84088026 72.27125997 -9.85320376 65.06468764 -9.8744939 57.85795355 C-9.89209325 51.67359594 -9.89811397 45.48930051 -9.89485615 39.30491877 C-9.89304075 35.60983637 -9.89570504 31.91489315 -9.90957069 28.21983337 C-9.92444629 24.10150423 -9.9151936 19.98357389 -9.90356445 15.86523438 C-9.91120819 14.63708511 -9.91885193 13.40893585 -9.92672729 12.14356995 C-9.91971298 11.02469894 -9.91269867 9.90582794 -9.9054718 8.75305176 C-9.90563954 7.77892586 -9.90580729 6.80479996 -9.90598011 5.80115509 C-9.53125 3.36328125 -9.53125 3.36328125 -8.19255352 1.54969025 C-5.56349194 -0.32783681 -3.18397898 -0.00804255 0 0 Z " fill="#FCCE17" transform="translate(360.53125,197.63671875)"/>
<path d="M0 0 C0.98178223 -0.00430527 0.98178223 -0.00430527 1.98339844 -0.00869751 C3.36524319 -0.01073618 4.74711693 -0.00521996 6.12890625 0.00732422 C8.2428445 0.02338314 10.35487113 0.00747149 12.46875 -0.01171875 C13.81250422 -0.00973628 15.15625724 -0.00589252 16.5 0 C17.72203125 0.00338379 18.9440625 0.00676758 20.203125 0.01025391 C23.25 0.3984375 23.25 0.3984375 24.91662025 1.61193848 C26.68332363 3.97901647 26.62722713 5.4305903 26.63095093 8.37060547 C26.64364014 9.91007843 26.64364014 9.91007843 26.65658569 11.48065186 C26.650513 12.60594299 26.64444031 13.73123413 26.63818359 14.890625 C26.64344055 16.07617981 26.64869751 17.26173462 26.65411377 18.48321533 C26.66506531 21.73532515 26.66248413 24.98706947 26.65297651 28.23917389 C26.64538594 31.64106521 26.65242384 35.04293195 26.65713501 38.44482422 C26.66259434 44.15792226 26.65539638 49.87090399 26.64111328 55.58398438 C26.62478632 62.19092314 26.63007471 68.79758419 26.6465925 75.40451622 C26.66020239 81.07508918 26.66212949 86.74557848 26.65427649 92.41616249 C26.6495972 95.80383482 26.64898202 99.19137657 26.65888596 102.57904053 C26.66647828 106.35496986 26.65492655 110.13036091 26.63818359 113.90625 C26.64425629 115.03154114 26.65032898 116.15683228 26.65658569 117.31622314 C26.64812622 118.34253845 26.63966675 119.36885376 26.63095093 120.42626953 C26.62981985 121.31927765 26.62868877 122.21228577 26.62752342 123.13235474 C26.16955476 125.8813097 25.48438251 126.77153698 23.25 128.3984375 C20.203125 128.78662109 20.203125 128.78662109 16.5 128.796875 C15.51821777 128.80118027 15.51821777 128.80118027 14.51660156 128.80557251 C13.13475681 128.80761118 11.75288307 128.80209496 10.37109375 128.78955078 C8.2571555 128.77349186 6.14512887 128.78940351 4.03125 128.80859375 C2.68749578 128.80661128 1.34374276 128.80276752 0 128.796875 C-1.22203125 128.79349121 -2.4440625 128.79010742 -3.703125 128.78662109 C-6.75 128.3984375 -6.75 128.3984375 -8.41662025 127.18493652 C-10.18332363 124.81785853 -10.12722713 123.3662847 -10.13095093 120.42626953 C-10.1394104 119.39995422 -10.14786987 118.37363892 -10.15658569 117.31622314 C-10.150513 116.19093201 -10.14444031 115.06564087 -10.13818359 113.90625 C-10.14344055 112.72069519 -10.14869751 111.53514038 -10.15411377 110.31365967 C-10.16506531 107.06154985 -10.16248413 103.80980553 -10.15297651 100.55770111 C-10.14538594 97.15580979 -10.15242384 93.75394305 -10.15713501 90.35205078 C-10.16259434 84.63895274 -10.15539638 78.92597101 -10.14111328 73.21289062 C-10.12478632 66.60595186 -10.13007471 59.99929081 -10.1465925 53.39235878 C-10.16020239 47.72178582 -10.16212949 42.05129652 -10.15427649 36.38071251 C-10.1495972 32.99304018 -10.14898202 29.60549843 -10.15888596 26.21783447 C-10.16647828 22.44190514 -10.15492655 18.66651409 -10.13818359 14.890625 C-10.14425629 13.76533386 -10.15032898 12.64004272 -10.15658569 11.48065186 C-10.14812622 10.45433655 -10.13966675 9.42802124 -10.13095093 8.37060547 C-10.12981985 7.47759735 -10.12868877 6.58458923 -10.12752342 5.66452026 C-9.16334684 -0.12294562 -5.09556019 0.01410954 0 0 Z " fill="#F68722" transform="translate(248.75,208.6015625)"/>
<path d="M0 0 C2.04139438 0.00316307 4.08134303 -0.02031744 6.12255859 -0.0456543 C8.05035156 -0.04662109 8.05035156 -0.04662109 10.01708984 -0.04760742 C11.19722656 -0.05058838 12.37736328 -0.05356934 13.59326172 -0.05664062 C16.54833984 0.31567383 16.54833984 0.31567383 18.20964336 1.55623531 C19.91672809 3.79984368 19.92314494 5.036893 19.92256165 7.83900452 C19.93308311 9.22919044 19.93308311 9.22919044 19.94381714 10.64746094 C19.9361734 11.66211426 19.92852966 12.67676758 19.9206543 13.72216797 C19.92430496 14.79228622 19.92795563 15.86240448 19.93171692 16.96495056 C19.93983843 20.51040399 19.92619952 24.05540272 19.91162109 27.60083008 C19.91110272 30.05797831 19.91161954 32.51512696 19.91313171 34.97227478 C19.91304192 40.12464581 19.90259715 45.27686059 19.88452148 50.42919922 C19.86182231 57.04626296 19.86129165 63.6630985 19.86803913 70.28019047 C19.87137418 75.35438581 19.86475798 80.42852874 19.8549099 85.50271416 C19.85105048 87.94325931 19.84991273 90.38381029 19.85149574 92.82435799 C19.85186498 96.22921056 19.83928623 99.6337661 19.82299805 103.03857422 C19.82547546 104.05525177 19.82795288 105.07192932 19.83050537 106.11941528 C19.81987816 107.50537148 19.81987816 107.50537148 19.80903625 108.91932678 C19.80698339 109.72476457 19.80493052 110.53020235 19.80281544 111.36004734 C19.54833984 113.31567383 19.54833984 113.31567383 17.54833984 115.31567383 C14.50732422 115.57446289 14.50732422 115.57446289 10.64208984 115.58129883 C9.62133362 115.58416901 9.62133362 115.58416901 8.57995605 115.58709717 C7.14086538 115.58845846 5.70176241 115.58476588 4.26269531 115.57641602 C2.05684897 115.56571511 -0.14818297 115.57631255 -2.35400391 115.58911133 C-3.75114112 115.58778972 -5.14827784 115.58522731 -6.54541016 115.58129883 C-7.8209375 115.57904297 -9.09646484 115.57678711 -10.41064453 115.57446289 C-13.45166016 115.31567383 -13.45166016 115.31567383 -15.45166016 113.31567383 C-15.70613575 111.34163666 -15.70613575 111.34163666 -15.71235657 108.87463379 C-15.71944138 107.94080368 -15.72652618 107.00697357 -15.73382568 106.04484558 C-15.73134827 105.01724625 -15.72887085 103.98964691 -15.72631836 102.9309082 C-15.73142929 101.8511824 -15.73654022 100.7714566 -15.74180603 99.65901184 C-15.75575167 96.07576008 -15.75474166 92.49269956 -15.75244141 88.90942383 C-15.75632531 86.42842537 -15.76065934 83.94742758 -15.76542664 81.46643066 C-15.77289935 76.2610458 -15.77258973 71.05572875 -15.76733398 65.8503418 C-15.76195854 60.49382327 -15.76901391 55.13749358 -15.7878418 49.78100586 C-15.81024029 43.32721478 -15.81810326 36.87358183 -15.81416893 30.41975403 C-15.81468401 27.95408072 -15.81995643 25.48840383 -15.82998085 23.02275085 C-15.84225366 19.58179493 -15.83560881 16.14138597 -15.82397461 12.70043945 C-15.83161835 11.67284012 -15.83926208 10.64524078 -15.84713745 9.58650208 C-15.84012314 8.65267197 -15.83310883 7.71884186 -15.82588196 6.75671387 C-15.8260497 5.94260292 -15.82621744 5.12849197 -15.82639027 4.289711 C-15.70272933 3.63827873 -15.57906839 2.98684647 -15.45166016 2.31567383 C-10.70257787 -0.85038103 -5.58680419 -0.01817832 0 0 Z " fill="#0E9B4A" transform="translate(422.45166015625,221.684326171875)"/>
<path d="M0 0 C3.02514648 -0.38818359 3.02514648 -0.38818359 6.87109375 -0.3984375 C7.54922623 -0.40130768 8.2273587 -0.40417786 8.92604065 -0.40713501 C10.36093988 -0.40917722 11.79586685 -0.40363627 13.23071289 -0.39111328 C15.42592829 -0.37508449 17.61929579 -0.39094154 19.81445312 -0.41015625 C21.2083374 -0.40817336 22.60222052 -0.40432872 23.99609375 -0.3984375 C25.26638428 -0.39505371 26.5366748 -0.39166992 27.84545898 -0.38818359 C31 0 31 0 32.67289734 1.00779724 C34.78711884 4.18159686 34.41629993 7.57592069 34.38818359 11.26342773 C34.39344055 12.10600128 34.39869751 12.94857483 34.40411377 13.81668091 C34.41733261 16.60583967 34.4085683 19.39442903 34.3984375 22.18359375 C34.40045788 24.12028615 34.40336903 26.05697781 34.40713501 27.9936676 C34.41156107 32.05485265 34.40511892 36.11583988 34.39111328 40.17700195 C34.37403267 45.38374067 34.38385371 50.5900151 34.40183067 55.79673672 C34.4126706 59.7970174 34.409221 63.797188 34.4014473 67.797472 C34.39944528 69.71722531 34.40190462 71.63698861 34.40888596 73.55673027 C34.41650257 76.24048199 34.40489287 78.92348201 34.38818359 81.60717773 C34.39729263 82.79880775 34.39729263 82.79880775 34.40658569 84.01451111 C34.36924763 87.25065421 34.20681698 89.61341829 32.66616821 92.49319458 C30.04178244 94.86656761 27.71977522 94.50135514 24.25 94.49609375 C23.59547852 94.49754898 22.94095703 94.49900421 22.26660156 94.50050354 C20.88472028 94.49884579 19.5028203 94.48729793 18.12109375 94.46655273 C16.00701408 94.43759607 13.89544264 94.44594292 11.78125 94.45898438 C10.43748782 94.45274657 9.09373356 94.44435528 7.75 94.43359375 C6.52796875 94.42384521 5.3059375 94.41409668 4.046875 94.40405273 C1 94 1 94 -0.66716003 92.99794006 C-2.80289881 89.79644688 -2.40753866 86.34944536 -2.37231445 82.62890625 C-2.37596512 81.77497284 -2.37961578 80.92103943 -2.38337708 80.04122925 C-2.39149185 77.2147847 -2.37786482 74.38891178 -2.36328125 71.5625 C-2.36276275 69.60099284 -2.36328005 67.63948516 -2.36479187 65.67797852 C-2.3647021 61.56551362 -2.35426391 57.45324458 -2.33618164 53.34082031 C-2.31349438 48.06455767 -2.31294993 42.78858132 -2.31969929 37.51228333 C-2.32303787 33.4614405 -2.31641126 29.41066317 -2.30657005 25.35983276 C-2.30271586 23.41413719 -2.30157074 21.46843434 -2.3031559 19.5227356 C-2.303526 16.80537999 -2.29092169 14.08839394 -2.2746582 11.37109375 C-2.27713562 10.56372772 -2.27961304 9.75636169 -2.28216553 8.92453003 C-2.24545773 5.08923051 -2.17835181 3.26752772 0 0 Z " fill="#F04F4A" transform="translate(297,243)"/>
<path d="M0 0 C3.63875088 3.08396375 4.16540002 7.90710247 5.125 12.375 C5.29386719 13.1175 5.46273437 13.86 5.63671875 14.625 C6.11264838 16.7460722 6.56094628 18.871028 7 21 C7.2371875 22.11761719 7.474375 23.23523438 7.71875 24.38671875 C8 27 8 27 6.375 29.4375 C4 31 4 31 1.5 30.875 C-1 30 -1 30 -3.0625 28.875 C-4.9432788 27.83757651 -4.9432788 27.83757651 -6.9453125 28.15722656 C-9.83273878 29.34156538 -10.39267231 30.85871459 -11.8125 33.609375 C-12.32498291 34.58213379 -12.83746582 35.55489258 -13.36547852 36.55712891 C-14.17456665 38.1376001 -14.17456665 38.1376001 -15 39.75 C-16.15285863 41.94120468 -17.30785201 44.13128736 -18.46484375 46.3203125 C-19.04991699 47.4330957 -19.63499023 48.54587891 -20.23779297 49.69238281 C-22.91859844 54.72418561 -25.72674686 59.67929036 -28.5625 64.625 C-29.05041016 65.4819043 -29.53832031 66.33880859 -30.04101562 67.22167969 C-30.94294613 68.79471191 -31.85451028 70.36227925 -32.77783203 71.92285156 C-33.55112856 73.23711582 -34.30038201 74.56608788 -35.01513672 75.91308594 C-35.96484375 77.5859375 -35.96484375 77.5859375 -38 80 C-43.05316596 80.66958671 -46.48698883 79.0955401 -50.7890625 76.68359375 C-51.41477142 76.3482814 -52.04048035 76.01296906 -52.68515015 75.66749573 C-54.67167563 74.60249398 -56.64910104 73.52207576 -58.625 72.4375 C-61.23493931 71.00557915 -63.85277689 69.58994809 -66.4765625 68.18359375 C-68.210271 67.23311157 -68.210271 67.23311157 -69.97900391 66.26342773 C-72.78792922 64.84044179 -72.78792922 64.84044179 -75.16625977 65.08007812 C-77.50261627 66.2521446 -79.02690006 67.6722371 -80.86328125 69.53515625 C-81.94706055 70.62666992 -81.94706055 70.62666992 -83.05273438 71.74023438 C-83.79845703 72.50658203 -84.54417969 73.27292969 -85.3125 74.0625 C-86.41368164 75.17141602 -86.41368164 75.17141602 -87.53710938 76.30273438 C-92.21517131 81.04721067 -96.64917379 85.95619801 -101 91 C-102.19004146 92.3291076 -103.39267254 93.64750204 -104.625 94.9375 C-105.15351562 95.50339844 -105.68203125 96.06929688 -106.2265625 96.65234375 C-108.54728834 98.41589092 -110.09380314 98.73622512 -113 99 C-115.65625 97.95532227 -115.65625 97.95532227 -118.5 96.31640625 C-119.54671875 95.72214844 -120.5934375 95.12789063 -121.671875 94.515625 C-122.77015625 93.87109375 -123.8684375 93.2265625 -125 92.5625 C-126.11890625 91.91667969 -127.2378125 91.27085937 -128.390625 90.60546875 C-130.60279242 89.32446948 -132.81124237 88.03702545 -135.015625 86.74267578 C-137.49474005 85.29503808 -139.98730646 83.88409716 -142.5 82.49609375 C-143.66740445 81.83202449 -144.83415892 81.16681011 -146 80.5 C-146.969375 79.9534375 -147.93875 79.406875 -148.9375 78.84375 C-151 77 -151 77 -151.8828125 73.8984375 C-152 71 -152 71 -150.875 69.125 C-148.38127935 67.62876761 -146.8861462 67.75948782 -144 68 C-141.64746094 69.0222168 -141.64746094 69.0222168 -139.234375 70.44921875 C-137.89826172 71.22749023 -137.89826172 71.22749023 -136.53515625 72.02148438 C-135.61605469 72.57126953 -134.69695312 73.12105469 -133.75 73.6875 C-131.03903014 75.27888958 -128.32726123 76.86890861 -125.61523438 78.45849609 C-123.89045783 79.47513529 -122.17275845 80.50389136 -120.46289062 81.54541016 C-119.67591797 82.01124512 -118.88894531 82.47708008 -118.078125 82.95703125 C-117.04026855 83.58508667 -117.04026855 83.58508667 -115.98144531 84.22583008 C-113.48337723 85.20184953 -112.45446495 85.03924466 -110 84 C-108.31067361 82.63178903 -108.31067361 82.63178903 -106.78515625 80.859375 C-106.18735352 80.20670654 -105.58955078 79.55403809 -104.97363281 78.8815918 C-104.34295898 78.1781665 -103.71228516 77.47474121 -103.0625 76.75 C-101.72710416 75.29127874 -100.38983011 73.8342749 -99.05078125 72.37890625 C-98.37740723 71.64559082 -97.7040332 70.91227539 -97.01025391 70.15673828 C-93.99789739 66.92487558 -90.88697974 63.79791425 -87.75 60.6875 C-87.21383057 60.15543945 -86.67766113 59.62337891 -86.12524414 59.07519531 C-84.75174851 57.71519352 -83.37600341 56.35746445 -82 55 C-81.51015625 54.38769531 -81.0203125 53.77539062 -80.515625 53.14453125 C-78.04925584 51.28204113 -76.02413599 51.7494262 -73 52 C-70.56042765 53.00476034 -68.37201859 54.02960872 -66.0703125 55.28125 C-65.43511688 55.61419067 -64.79992126 55.94713135 -64.14547729 56.29016113 C-62.13237384 57.34869383 -60.12879098 58.42396136 -58.125 59.5 C-56.75580336 60.22378299 -55.38601696 60.94645149 -54.015625 61.66796875 C-50.6701202 63.43248749 -47.33304397 65.21206316 -44 67 C-41.52621078 63.87363903 -39.59080203 60.61672882 -37.671875 57.125 C-37.03636719 55.97386719 -36.40085937 54.82273438 -35.74609375 53.63671875 C-35.08051814 52.42459502 -34.41515429 51.21235498 -33.75 50 C-32.45504454 47.64477146 -31.15772808 45.29085695 -29.859375 42.9375 C-29.22451172 41.78507812 -28.58964844 40.63265625 -27.93554688 39.4453125 C-25.46626527 35.0499414 -22.87986858 30.73256894 -20.25878906 26.42578125 C-18.76970062 24.01168588 -18.76970062 24.01168588 -19 21 C-20.74648543 19.71017655 -20.74648543 19.71017655 -22.9375 18.625 C-26.85596951 16.3183832 -26.85596951 16.3183832 -28.1875 13.375 C-28 11 -28 11 -26.75317383 9.47924805 C-23.51907573 6.7504637 -19.56135537 5.42928643 -15.6875 3.8125 C-14.84509766 3.44447266 -14.00269531 3.07644531 -13.13476562 2.69726562 C-4.64846064 -0.87905837 -4.64846064 -0.87905837 0 0 Z " fill="#E2EFF3" transform="translate(201,39)"/>
<path d="M0 0 C7.46847631 -0.36730211 7.46847631 -0.36730211 9.73790932 1.20095825 C11.40635626 3.57923878 11.37728349 5.07664895 11.38095093 7.97216797 C11.39364014 9.51164093 11.39364014 9.51164093 11.40658569 11.08221436 C11.400513 12.20750549 11.39444031 13.33279663 11.38818359 14.4921875 C11.39344055 15.67774231 11.39869751 16.86329712 11.40411377 18.08477783 C11.41506531 21.33688765 11.41248413 24.58863197 11.40297651 27.84073639 C11.39538594 31.24262771 11.40242384 34.64449445 11.40713501 38.04638672 C11.41259434 43.75948476 11.40539638 49.47246649 11.39111328 55.18554688 C11.37478632 61.79248564 11.38007471 68.39914669 11.3965925 75.00607872 C11.41020239 80.67665168 11.41212949 86.34714098 11.40427649 92.01772499 C11.3995972 95.40539732 11.39898202 98.79293907 11.40888596 102.18060303 C11.41647828 105.95653236 11.40492655 109.73192341 11.38818359 113.5078125 C11.39425629 114.63310364 11.40032898 115.75839478 11.40658569 116.91778564 C11.39812622 117.94410095 11.38966675 118.97041626 11.38095093 120.02783203 C11.37981985 120.92084015 11.37868877 121.81384827 11.37752342 122.73391724 C10.9195244 125.48305447 10.23583859 126.37433729 8 128 C4.93725586 128.37231445 4.93725586 128.37231445 1.21484375 128.36328125 C0.22950401 128.36402901 0.22950401 128.36402901 -0.77574158 128.36479187 C-2.16180452 128.36245488 -3.54787199 128.35274825 -4.93383789 128.33618164 C-7.05848984 128.31254461 -9.18189022 128.31562808 -11.30664062 128.32226562 C-21.72084085 128.27915915 -21.72084085 128.27915915 -24 126 C-24 124.68 -24 123.36 -24 122 C-23.3709375 121.79246094 -22.741875 121.58492188 -22.09375 121.37109375 C-14.0335908 118.46992199 -7.60898619 114.60089815 -3.5625 106.8125 C-1.75141723 102.82486933 -0.8807034 99.14203942 -0.84178162 94.76055908 C-0.8319928 93.92205917 -0.82220398 93.08355927 -0.81211853 92.21965027 C-0.80636307 91.30830826 -0.8006076 90.39696625 -0.79467773 89.45800781 C-0.78477814 88.49182022 -0.77487854 87.52563263 -0.76467896 86.53016663 C-0.73310158 83.33784431 -0.70832131 80.14550712 -0.68359375 76.953125 C-0.66302098 74.73923354 -0.64202442 72.52534598 -0.62062073 70.3114624 C-0.56543344 64.48524128 -0.51600937 58.6589849 -0.46777344 52.83270264 C-0.41753405 46.88713443 -0.3618607 40.94161741 -0.30664062 34.99609375 C-0.19909992 23.33077289 -0.09764582 11.66540759 0 0 Z " fill="#DF7D23" transform="translate(264,209)"/>
<path d="M0 0 C6.625 -0.25 6.625 -0.25 10 2 C10.37473011 4.34885406 10.37473011 4.34885406 10.3742218 7.35217285 C10.38474327 9.05582756 10.38474327 9.05582756 10.39547729 10.79389954 C10.38783356 12.0459166 10.38018982 13.29793365 10.37231445 14.58789062 C10.37596512 15.90170212 10.37961578 17.21551361 10.38337708 18.56913757 C10.3928023 22.17863961 10.38334719 25.78787126 10.37004495 29.39735222 C10.3587505 33.16940236 10.3628364 36.94143879 10.36479187 40.71350098 C10.36567549 47.04879183 10.35458044 53.38397581 10.33618164 59.71923828 C10.31501294 67.05037281 10.31150372 74.38135073 10.3177436 81.71250963 C10.32343255 88.7562114 10.31779715 95.79985784 10.30657005 102.84355164 C10.30191783 105.84511841 10.3010529 108.84665142 10.3031559 111.84822083 C10.30538423 116.03626761 10.29095024 120.22409375 10.2746582 124.41210938 C10.27713562 125.66412643 10.27961304 126.91614349 10.28216553 128.20610046 C10.27153831 129.90975517 10.27153831 129.90975517 10.26069641 131.64782715 C10.25864354 132.63892235 10.25659067 133.63001755 10.25447559 134.65114594 C10 137 10 137 8 139 C3.58156451 139.3990639 -0.85119839 139.32903357 -5.28564453 139.31567383 C-7.49171234 139.31251188 -9.69644169 139.33597576 -11.90234375 139.36132812 C-13.29947747 139.36360088 -14.69661481 139.36430472 -16.09375 139.36328125 C-17.36927734 139.36626221 -18.64480469 139.36924316 -19.95898438 139.37231445 C-20.96251953 139.24945068 -21.96605469 139.12658691 -23 139 C-25 136 -25 136 -25 133 C-24.03900391 132.65388672 -24.03900391 132.65388672 -23.05859375 132.30078125 C-13.76504136 128.79665494 -7.43039168 125.17605469 -3 116 C-0.62748921 110.41329852 -0.6939489 105.18653432 -0.68115234 99.22119141 C-0.67110672 98.14742249 -0.6610611 97.07365356 -0.65071106 95.96734619 C-0.61989416 92.42875692 -0.60284782 88.89024327 -0.5859375 85.3515625 C-0.56722468 82.89390412 -0.54765119 80.43625215 -0.5272522 77.97860718 C-0.47593718 71.51784041 -0.43630791 65.05705282 -0.39910889 58.59619141 C-0.35906543 52.00027313 -0.3079746 45.40444146 -0.2578125 38.80859375 C-0.16106059 25.87245776 -0.07627805 12.93627209 0 0 Z " fill="#E4BB15" transform="translate(376,198)"/>
<path d="M0 0 C6.48976246 -0.36734504 6.48976246 -0.36734504 8.70707989 1.22901058 C10.35110244 3.48092585 10.37479927 4.74923364 10.3742218 7.52333069 C10.38474327 8.91351662 10.38474327 8.91351662 10.39547729 10.33178711 C10.38783356 11.34644043 10.38018982 12.36109375 10.37231445 13.40649414 C10.37596512 14.4766124 10.37961578 15.54673065 10.38337708 16.64927673 C10.39149859 20.19473016 10.37785968 23.73972889 10.36328125 27.28515625 C10.36276288 29.74230448 10.3632797 32.19945313 10.36479187 34.65660095 C10.36470208 39.80897198 10.3542573 44.96118677 10.33618164 50.11352539 C10.31348247 56.73058913 10.31295181 63.34742467 10.31969929 69.96451664 C10.32303433 75.03871198 10.31641814 80.11285492 10.30657005 85.18704033 C10.30271064 87.62758549 10.30157289 90.06813646 10.3031559 92.50868416 C10.30352513 95.91353673 10.29094639 99.31809227 10.2746582 102.72290039 C10.27713562 103.73957794 10.27961304 104.75625549 10.28216553 105.80374146 C10.27153831 107.18969765 10.27153831 107.18969765 10.26069641 108.60365295 C10.25864354 109.40909074 10.25659067 110.21452852 10.25447559 111.04437351 C10 113 10 113 8 115 C4.95898438 115.25878906 4.95898438 115.25878906 1.09375 115.265625 C0.07299377 115.26849518 0.07299377 115.26849518 -0.96838379 115.27142334 C-2.40747446 115.27278463 -3.84657744 115.26909205 -5.28564453 115.26074219 C-7.49149087 115.25004128 -9.69652281 115.26063872 -11.90234375 115.2734375 C-13.29948097 115.27211589 -14.69661768 115.26955348 -16.09375 115.265625 C-17.36927734 115.26336914 -18.64480469 115.26111328 -19.95898438 115.25878906 C-23 115 -23 115 -25 113 C-25 111.68 -25 110.36 -25 109 C-23.78763672 108.54560547 -23.78763672 108.54560547 -22.55078125 108.08203125 C-14.36358253 104.90403022 -14.36358253 104.90403022 -8 99 C-7.29875 98.2575 -6.5975 97.515 -5.875 96.75 C-1.58422456 90.45686269 -0.55356006 83.649206 -0.56762695 76.17553711 C-0.5574353 75.34516937 -0.54724365 74.51480164 -0.53674316 73.65927124 C-0.50684865 70.94855802 -0.49738364 68.23819948 -0.48828125 65.52734375 C-0.47141706 63.63447416 -0.45326449 61.74161564 -0.43388367 59.84877014 C-0.3865665 54.892298 -0.35663917 49.93587081 -0.33044434 44.97924805 C-0.30054618 39.91120533 -0.25404781 34.84331717 -0.20898438 29.77539062 C-0.12315947 19.85034158 -0.055722 9.92526054 0 0 Z " fill="#0D8D43" transform="translate(432,222)"/>
<path d="M0 0 C7.36745841 -0.36233402 7.36745841 -0.36233402 9.73745728 0.99525452 C11.75524676 4.19922875 11.41616963 7.59301037 11.38818359 11.26342773 C11.39344055 12.10600128 11.39869751 12.94857483 11.40411377 13.81668091 C11.41733261 16.60583967 11.4085683 19.39442903 11.3984375 22.18359375 C11.40045788 24.12028615 11.40336903 26.05697781 11.40713501 27.9936676 C11.41156107 32.05485265 11.40511892 36.11583988 11.39111328 40.17700195 C11.37403267 45.38374067 11.38385371 50.5900151 11.40183067 55.79673672 C11.4126706 59.7970174 11.409221 63.797188 11.4014473 67.797472 C11.39944528 69.71722531 11.40190462 71.63698861 11.40888596 73.55673027 C11.41650257 76.24048199 11.40489287 78.92348201 11.38818359 81.60717773 C11.39729263 82.79880775 11.39729263 82.79880775 11.40658569 84.01451111 C11.36924723 87.25068868 11.20592012 89.61450181 9.66716003 92.49517822 C7.03048103 94.8751129 4.69385011 94.46708119 1.21484375 94.42578125 C0.55795059 94.42249313 -0.09894257 94.41920502 -0.77574158 94.41581726 C-2.16187473 94.40540837 -3.54796464 94.38547805 -4.93383789 94.35668945 C-7.05834822 94.31258619 -9.18172903 94.29524995 -11.30664062 94.28320312 C-21.63953444 94.18023278 -21.63953444 94.18023278 -24 93 C-24 91.35 -24 89.7 -24 88 C-23.35933594 87.78085937 -22.71867187 87.56171875 -22.05859375 87.3359375 C-11.96281173 83.63465229 -6.9934446 79.24480252 -2.27484131 69.51452637 C-0.00360634 63.25310768 -0.14915167 56.9562489 -0.1953125 50.390625 C-0.18403387 48.92801751 -0.17014093 47.4654281 -0.15377808 46.00286865 C-0.11806355 42.19533012 -0.11732473 38.38859971 -0.12445068 34.58093262 C-0.12537027 30.67881229 -0.092411 26.77698422 -0.0625 22.875 C-0.00894285 15.24989272 0.00758137 7.62531804 0 0 Z " fill="#D94C48" transform="translate(320,243)"/>
<path d="M0 0 C1.01514427 -0.0076664 1.01514427 -0.0076664 2.05079651 -0.01548767 C4.28794193 -0.0293877 6.52477942 -0.02842663 8.76196289 -0.02612305 C10.31751114 -0.03000981 11.87305832 -0.03434444 13.42860413 -0.03910828 C16.68941691 -0.04657139 19.95012142 -0.04627862 23.2109375 -0.04101562 C27.38860728 -0.03522135 31.56583367 -0.05215018 35.74343014 -0.0753603 C38.95620818 -0.09009602 42.16887941 -0.09096957 45.38168526 -0.08785057 C46.92185914 -0.08836388 48.46203898 -0.09360356 50.0021801 -0.10366249 C52.1566939 -0.11600666 54.31034366 -0.10924827 56.46484375 -0.09765625 C58.30326088 -0.09860039 58.30326088 -0.09860039 60.17881775 -0.0995636 C63.51178892 0.30042034 64.88219123 1.00750223 67.29711914 3.2746582 C67.04150591 5.6177795 66.70441142 7.95309223 66.29711914 10.2746582 C63.37059006 11.73792274 60.77627075 11.41815984 57.50830078 11.43579102 C56.81057053 11.44075592 56.11284027 11.44572083 55.39396667 11.45083618 C53.08172629 11.46546278 50.76955447 11.47226007 48.45727539 11.4777832 C46.85306292 11.4835336 45.24885048 11.48929134 43.64463806 11.49505615 C40.27952758 11.50556711 36.914441 11.51140936 33.54931641 11.51489258 C29.23367034 11.52038206 24.91833903 11.54441913 20.60279179 11.57286453 C17.28884451 11.59147027 13.97497342 11.59669537 10.66097832 11.59822845 C9.06972975 11.60125946 7.47848267 11.60930303 5.88728523 11.62241364 C3.66305561 11.639434 1.43960002 11.63760437 -0.78466797 11.63110352 C-2.05104599 11.63474915 -3.31742401 11.63839478 -4.62217712 11.64215088 C-7.70288086 11.2746582 -7.70288086 11.2746582 -9.64308167 9.94378662 C-10.70288086 8.2746582 -10.70288086 8.2746582 -10.57788086 5.2121582 C-8.89957719 -0.42214697 -5.16453969 0.01942746 0 0 Z " fill="#4E4E4F" transform="translate(144.702880859375,286.725341796875)"/>
<path d="M0 0 C0.69773026 -0.00350464 1.39546051 -0.00700928 2.11433411 -0.01062012 C4.426665 -0.01944084 6.73869124 -0.01358659 9.05102539 -0.00683594 C10.65523843 -0.00818265 12.25945108 -0.01012323 13.86366272 -0.01263428 C17.22880939 -0.01558612 20.59385001 -0.01128657 23.95898438 -0.00195312 C28.27457864 0.00943233 32.58992391 0.00288816 36.905509 -0.00909805 C40.21946592 -0.01632288 43.53336376 -0.01402571 46.84732246 -0.00884247 C48.43855379 -0.00750722 50.02979046 -0.00914934 51.62101555 -0.01380157 C53.84514456 -0.01887606 56.06886983 -0.01114347 58.29296875 0 C60.19253578 0.00238678 60.19253578 0.00238678 62.13047791 0.00482178 C65.21118164 0.25878906 65.21118164 0.25878906 68.21118164 2.25878906 C68.52368164 5.25878906 68.52368164 5.25878906 68.21118164 8.25878906 C65.34336681 11.12660389 63.34716207 10.51902714 59.33056641 10.53344727 C58.62308258 10.5385582 57.91559875 10.54366913 57.18667603 10.54893494 C54.84189455 10.56286468 52.49740589 10.56187164 50.15258789 10.55957031 C48.52595408 10.5634555 46.89932129 10.5677898 45.27268982 10.57255554 C41.86047072 10.58002509 38.44835508 10.57972127 35.03613281 10.57446289 C30.65992603 10.56866834 26.2841425 10.58559508 21.90800571 10.60880756 C18.54771949 10.62352856 15.18753557 10.62441883 11.82722282 10.62129784 C10.21365457 10.62181191 8.60008073 10.62706578 6.98654366 10.63710976 C4.73114534 10.64942512 2.47657611 10.6427127 0.22119141 10.63110352 C-1.70502296 10.63204765 -1.70502296 10.63204765 -3.67015076 10.63301086 C-6.78881836 10.25878906 -6.78881836 10.25878906 -8.73866272 8.89567566 C-9.78881836 7.25878906 -9.78881836 7.25878906 -9.60131836 4.69628906 C-7.84819499 -0.56308105 -5.02162361 0.00631357 0 0 Z " fill="#474748" transform="translate(143.788818359375,326.7412109375)"/>
<path d="M0 0 C1.28519531 -0.00386719 2.57039062 -0.00773438 3.89453125 -0.01171875 C4.56307129 -0.00543457 5.23161133 0.00084961 5.92041016 0.00732422 C7.9619433 0.02338396 10.00149708 0.00747079 12.04296875 -0.01171875 C13.32816406 -0.00785156 14.61335938 -0.00398437 15.9375 0 C17.11763672 0.00338379 18.29777344 0.00676758 19.51367188 0.01025391 C22.46875 0.3984375 22.46875 0.3984375 24.35351562 1.76708984 C25.95625389 4.11155067 25.8850671 5.62299014 25.46875 8.3984375 C24.35351562 10.02978516 24.35351562 10.02978516 22.46875 11.3984375 C19.51367188 11.78662109 19.51367188 11.78662109 15.9375 11.796875 C14.65230469 11.80074219 13.36710937 11.80460937 12.04296875 11.80859375 C11.37442871 11.80230957 10.70588867 11.79602539 10.01708984 11.78955078 C7.9755567 11.77349104 5.93600292 11.78940421 3.89453125 11.80859375 C2.60933594 11.80472656 1.32414063 11.80085938 0 11.796875 C-1.18013672 11.79349121 -2.36027344 11.79010742 -3.57617188 11.78662109 C-6.53125 11.3984375 -6.53125 11.3984375 -8.41601562 10.02978516 C-10.01875389 7.68532433 -9.9475671 6.17388486 -9.53125 3.3984375 C-7.00688533 -0.29416423 -4.23993439 0.0121571 0 0 Z " fill="#4C4C4D" transform="translate(186.53125,247.6015625)"/>
</svg>
